<?xml version="1.0" encoding="UTF-8"?>
<!DOCTYPE svg PUBLIC "-//W3C//DTD SVG 1.1//EN" "http://www.w3.org/Graphics/SVG/1.1/DTD/svg11.dtd">
<svg version="1.1" xmlns="http://www.w3.org/2000/svg" xmlns:xlink="http://www.w3.org/1999/xlink" x="0px" y="0px" width="1152" height="648" viewBox="0, 0, 1152, 648">
  <g id="Layer 1">
    <g>
      <g>
        <path d="M928.003,124.176 L1107.119,124.176 L1107.119,217.006 L928.003,217.006 z" fill="url(#Gradient_1)"/>
        <path d="M928.003,124.176 L1107.119,124.176 L1107.119,217.006 L928.003,217.006 z" fill-opacity="0" stroke="#000000" stroke-width="1"/>
      </g>
      <g>
        <path d="M955.178,178.02 C949.692,178.02 945.244,173.514 945.244,167.957 C945.244,162.399 949.692,157.894 955.178,157.894 C960.665,157.894 965.113,162.399 965.113,167.957 C965.113,173.514 960.665,178.02 955.178,178.02 z" fill="url(#Gradient_2)"/>
        <path d="M955.178,178.02 C949.692,178.02 945.244,173.514 945.244,167.957 C945.244,162.399 949.692,157.894 955.178,157.894 C960.665,157.894 965.113,162.399 965.113,167.957 C965.113,173.514 960.665,178.02 955.178,178.02 z" fill-opacity="0" stroke="#000000" stroke-width="1"/>
      </g>
      <g>
        <path d="M1013.556,200.569 C1008.069,200.569 1003.621,196.064 1003.621,190.506 C1003.621,184.949 1008.069,180.443 1013.556,180.443 C1019.043,180.443 1023.491,184.949 1023.491,190.506 C1023.491,196.064 1019.043,200.569 1013.556,200.569 z" fill="#FF331E"/>
        <path d="M1013.556,200.569 C1008.069,200.569 1003.621,196.064 1003.621,190.506 C1003.621,184.949 1008.069,180.443 1013.556,180.443 C1019.043,180.443 1023.491,184.949 1023.491,190.506 C1023.491,196.064 1019.043,200.569 1013.556,200.569 z" fill-opacity="0" stroke="#000000" stroke-width="1"/>
      </g>
      <g>
        <path d="M1026.462,154.898 C1020.975,154.898 1016.527,150.392 1016.527,144.835 C1016.527,139.277 1020.975,134.772 1026.462,134.772 C1031.948,134.772 1036.396,139.277 1036.396,144.835 C1036.396,150.392 1031.948,154.898 1026.462,154.898 z" fill="url(#Gradient_3)"/>
        <path d="M1026.462,154.898 C1020.975,154.898 1016.527,150.392 1016.527,144.835 C1016.527,139.277 1020.975,134.772 1026.462,134.772 C1031.948,134.772 1036.396,139.277 1036.396,144.835 C1036.396,150.392 1031.948,154.898 1026.462,154.898 z" fill-opacity="0" stroke="#000000" stroke-width="1"/>
      </g>
      <g>
        <path d="M1069.53,193.864 C1064.043,193.864 1059.595,189.359 1059.595,183.801 C1059.595,178.243 1064.043,173.738 1069.53,173.738 C1075.016,173.738 1079.464,178.243 1079.464,183.801 C1079.464,189.359 1075.016,193.864 1069.53,193.864 z" fill="url(#Gradient_4)"/>
        <path d="M1069.53,193.864 C1064.043,193.864 1059.595,189.359 1059.595,183.801 C1059.595,178.243 1064.043,173.738 1069.53,173.738 C1075.016,173.738 1079.464,178.243 1079.464,183.801 C1079.464,189.359 1075.016,193.864 1069.53,193.864 z" fill-opacity="0" stroke="#000000" stroke-width="1"/>
      </g>
      <g>
        <path d="M965.113,165.15 C965.113,165.15 987.268,148.015 1012.041,147.721" fill-opacity="0" stroke="#000000" stroke-width="0.5"/>
        <path d="M1011.995,149.221 L1016.039,147.843 L1012.086,146.222 z" fill="#000000" fill-opacity="1" stroke="#000000" stroke-width="0.5" stroke-opacity="1"/>
      </g>
      <g>
        <path d="M936.956,189.316" fill="url(#Gradient_5)"/>
        <path d="M936.956,189.316" fill-opacity="0" stroke="#000000" stroke-width="1"/>
      </g>
      <g>
        <path d="M1036.396,144.835 C1036.396,144.835 1044.864,128.439 1050.388,134.772 C1055.564,140.706 1059.927,157.721 1040.618,151.623" fill-opacity="0" stroke="#000000" stroke-width="0.5"/>
        <path d="M1041.136,150.215 L1036.864,150.241 L1040.1,153.03 z" fill="#000000" fill-opacity="1" stroke="#000000" stroke-width="0.5" stroke-opacity="1"/>
      </g>
      <g>
        <path d="M1023.491,157.894 C1023.491,157.894 1023.023,169.612 1019.193,176.834" fill-opacity="0" stroke="#000000" stroke-width="0.5"/>
        <path d="M1017.986,175.942 L1016.816,180.051 L1020.399,177.725 z" fill="#000000" fill-opacity="1" stroke="#000000" stroke-width="0.5" stroke-opacity="1"/>
      </g>
      <g>
        <path d="M1033.51,152.922 C1039.112,154.635 1054.408,165.696 1061.257,174.288" fill-opacity="0" stroke="#000000" stroke-width="0.5"/>
        <path d="M1060.009,175.12 L1063.476,177.617 L1062.505,173.456 z" fill="#000000" fill-opacity="1" stroke="#000000" stroke-width="0.5" stroke-opacity="1"/>
      </g>
      <g>
        <path d="M1063.745,189.316 C1063.745,189.316 1046.218,198.914 1027.827,195.037" fill-opacity="0" stroke="#000000" stroke-width="0.5"/>
        <path d="M1028.219,193.589 L1023.966,193.993 L1027.436,196.485 z" fill="#000000" fill-opacity="1" stroke="#000000" stroke-width="0.5" stroke-opacity="1"/>
      </g>
      <g>
        <path d="M1003.621,190.506 C1003.621,190.506 987.68,172.503 969.567,173.182" fill-opacity="0" stroke="#000000" stroke-width="0.5"/>
        <path d="M969.381,171.693 L965.598,173.677 L969.753,174.67 z" fill="#000000" fill-opacity="1" stroke="#000000" stroke-width="0.5" stroke-opacity="1"/>
      </g>
    </g>
    <g>
      <g>
        <path d="M631.475,333.002 C623.408,333.002 616.869,326.379 616.869,318.208 C616.869,310.038 623.408,303.415 631.475,303.415 C639.541,303.415 646.08,310.038 646.08,318.208 C646.08,326.379 639.541,333.002 631.475,333.002 z" fill="url(#Gradient_6)"/>
        <path d="M631.475,333.002 C623.408,333.002 616.869,326.379 616.869,318.208 C616.869,310.038 623.408,303.415 631.475,303.415 C639.541,303.415 646.08,310.038 646.08,318.208 C646.08,326.379 639.541,333.002 631.475,333.002 z" fill-opacity="0" stroke="#000000" stroke-width="1"/>
      </g>
      <g>
        <path d="M717.296,366.153 C709.23,366.153 702.691,359.529 702.691,351.359 C702.691,343.188 709.23,336.565 717.296,336.565 C725.363,336.565 731.902,343.188 731.902,351.359 C731.902,359.529 725.363,366.153 717.296,366.153 z" fill="#FF331E"/>
        <path d="M717.296,366.153 C709.23,366.153 702.691,359.529 702.691,351.359 C702.691,343.188 709.23,336.565 717.296,336.565 C725.363,336.565 731.902,343.188 731.902,351.359 C731.902,359.529 725.363,366.153 717.296,366.153 z" fill-opacity="0" stroke="#000000" stroke-width="1"/>
      </g>
      <g>
        <path d="M736.27,299.01 C728.203,299.01 721.664,292.386 721.664,284.216 C721.664,276.046 728.203,269.422 736.27,269.422 C744.336,269.422 750.875,276.046 750.875,284.216 C750.875,292.386 744.336,299.01 736.27,299.01 z" fill="url(#Gradient_7)"/>
        <path d="M736.27,299.01 C728.203,299.01 721.664,292.386 721.664,284.216 C721.664,276.046 728.203,269.422 736.27,269.422 C744.336,269.422 750.875,276.046 750.875,284.216 C750.875,292.386 744.336,299.01 736.27,299.01 z" fill-opacity="0" stroke="#000000" stroke-width="1"/>
      </g>
      <g>
        <path d="M799.585,356.295 C791.518,356.295 784.979,349.672 784.979,341.501 C784.979,333.331 791.518,326.707 799.585,326.707 C807.651,326.707 814.19,333.331 814.19,341.501 C814.19,349.672 807.651,356.295 799.585,356.295 z" fill="url(#Gradient_8)"/>
        <path d="M799.585,356.295 C791.518,356.295 784.979,349.672 784.979,341.501 C784.979,333.331 791.518,326.707 799.585,326.707 C807.651,326.707 814.19,333.331 814.19,341.501 C814.19,349.672 807.651,356.295 799.585,356.295 z" fill-opacity="0" stroke="#000000" stroke-width="1"/>
      </g>
      <g>
        <path d="M646.08,314.082 C646.08,314.082 679.909,287.917 717.165,288.462" fill-opacity="0" stroke="#000000" stroke-width="0.5"/>
        <path d="M717.099,289.961 L721.161,288.638 L717.231,286.964 z" fill="#000000" fill-opacity="1" stroke="#000000" stroke-width="0.5" stroke-opacity="1"/>
      </g>
      <g>
        <path d="M604.685,349.608" fill="url(#Gradient_9)"/>
        <path d="M604.685,349.608" fill-opacity="0" stroke="#000000" stroke-width="1"/>
      </g>
      <g>
        <path d="M750.875,284.216 C750.875,284.216 763.324,260.112 771.444,269.422 C779.228,278.346 785.761,304.316 755.074,293.524" fill-opacity="0" stroke="#000000" stroke-width="0.5"/>
        <path d="M755.612,292.124 L751.34,292.09 L754.536,294.924 z" fill="#000000" fill-opacity="1" stroke="#000000" stroke-width="0.5" stroke-opacity="1"/>
      </g>
      <g>
        <path d="M731.902,303.415 C731.902,303.415 731.129,322.777 724.512,333.097" fill-opacity="0" stroke="#000000" stroke-width="0.5"/>
        <path d="M723.353,332.145 L721.973,336.188 L725.671,334.05 z" fill="#000000" fill-opacity="1" stroke="#000000" stroke-width="0.5" stroke-opacity="1"/>
      </g>
      <g>
        <path d="M746.632,296.106 C755.235,298.737 779.396,316.369 788.698,329.189" fill-opacity="0" stroke="#000000" stroke-width="0.5"/>
        <path d="M787.426,329.984 L790.818,332.582 L789.971,328.395 z" fill="#000000" fill-opacity="1" stroke="#000000" stroke-width="0.5" stroke-opacity="1"/>
      </g>
      <g>
        <path d="M791.08,349.608 C791.08,349.608 763.995,364.441 736.225,357.548" fill-opacity="0" stroke="#000000" stroke-width="0.5"/>
        <path d="M736.643,356.107 L732.383,356.435 L735.808,358.989 z" fill="#000000" fill-opacity="1" stroke="#000000" stroke-width="0.5" stroke-opacity="1"/>
      </g>
      <g>
        <path d="M702.691,351.359 C702.691,351.359 678.016,323.49 650.534,326.025" fill-opacity="0" stroke="#000000" stroke-width="0.5"/>
        <path d="M650.307,324.543 L646.58,326.631 L650.761,327.508 z" fill="#000000" fill-opacity="1" stroke="#000000" stroke-width="0.5" stroke-opacity="1"/>
      </g>
    </g>
    <g>
      <path d="M95.927,287.97 C101.751,287.97 106.52,283.249 106.52,277.377 C106.52,271.536 101.751,266.784 95.927,266.784 C90.086,266.784 85.334,271.536 85.334,277.377 C85.318,283.249 90.07,287.97 95.927,287.97" fill="#000000"/>
      <path d="M81.525,390.845 C81.525,394.125 84.197,396.798 87.478,396.798 C90.758,396.798 93.43,394.125 93.43,390.845 L93.43,340.952 L98.423,340.952 L98.423,390.845 C98.423,394.125 101.063,396.798 104.344,396.798 C107.624,396.798 110.296,394.125 110.296,390.845 L110.344,304.836 L115.273,304.836 L115.273,336.535 C115.273,342.936 123.594,342.936 123.562,336.535 L123.562,304.132 C123.562,297.107 118.105,290.226 109.864,290.226 L81.717,290.178 C74.212,290.178 68.18,296.339 68.18,303.94 L68.18,336.535 C68.18,342.856 76.533,342.856 76.533,336.535 L76.533,304.836 L81.573,304.836 L81.525,390.845 z" fill="#000000"/>
    </g>
    <g>
      <path d="M384.279,293.063 C384.279,293.063 417.374,237.932 451.158,289.042 C461.618,250.945 494.14,273.067 493.069,294.191 C564.409,282.176 578.376,361.772 507.286,350.146 C517.861,379.772 481.127,399.292 451.158,357.171 C443.4,391.148 376.899,398.006 378.973,353.029 C341.899,356.349 340.598,295.189 384.279,293.063 z" fill="url(#Gradient_10)"/>
      <path d="M384.279,293.063 C384.279,293.063 417.374,237.932 451.158,289.042 C461.618,250.945 494.14,273.067 493.069,294.191 C564.409,282.176 578.376,361.772 507.286,350.146 C517.861,379.772 481.127,399.292 451.158,357.171 C443.4,391.148 376.899,398.006 378.973,353.029 C341.899,356.349 340.598,295.189 384.279,293.063 z" fill-opacity="0" stroke="#000000" stroke-width="1.25"/>
    </g>
    <g>
      <path d="M159.135,326.985 L340.035,324.975" fill="#000000"/>
      <g>
        <path d="M159.135,326.985 L331.036,325.075" fill-opacity="0" stroke="#000000" stroke-width="1"/>
        <path d="M331.069,328.075 L339.035,324.986 L331.002,322.075 z" fill="#000000" fill-opacity="1" stroke="#000000" stroke-width="1" stroke-opacity="1"/>
      </g>
    </g>
    <g>
      <g>
        <path d="M928.003,275.892 L1107.119,275.892 L1107.119,368.722 L928.003,368.722 z" fill="url(#Gradient_11)"/>
        <path d="M928.003,275.892 L1107.119,275.892 L1107.119,368.722 L928.003,368.722 z" fill-opacity="0" stroke="#000000" stroke-width="1"/>
      </g>
      <g>
        <path d="M955.178,329.736 C949.692,329.736 945.244,325.231 945.244,319.673 C945.244,314.115 949.692,309.61 955.178,309.61 C960.665,309.61 965.113,314.115 965.113,319.673 C965.113,325.231 960.665,329.736 955.178,329.736 z" fill="url(#Gradient_12)"/>
        <path d="M955.178,329.736 C949.692,329.736 945.244,325.231 945.244,319.673 C945.244,314.115 949.692,309.61 955.178,309.61 C960.665,309.61 965.113,314.115 965.113,319.673 C965.113,325.231 960.665,329.736 955.178,329.736 z" fill-opacity="0" stroke="#000000" stroke-width="1"/>
      </g>
      <g>
        <path d="M1013.556,352.285 C1008.069,352.285 1003.621,347.78 1003.621,342.222 C1003.621,336.665 1008.069,332.159 1013.556,332.159 C1019.043,332.159 1023.491,336.665 1023.491,342.222 C1023.491,347.78 1019.043,352.285 1013.556,352.285 z" fill="#FF331E"/>
        <path d="M1013.556,352.285 C1008.069,352.285 1003.621,347.78 1003.621,342.222 C1003.621,336.665 1008.069,332.159 1013.556,332.159 C1019.043,332.159 1023.491,336.665 1023.491,342.222 C1023.491,347.78 1019.043,352.285 1013.556,352.285 z" fill-opacity="0" stroke="#000000" stroke-width="1"/>
      </g>
      <g>
        <path d="M1026.462,306.614 C1020.975,306.614 1016.527,302.108 1016.527,296.551 C1016.527,290.993 1020.975,286.488 1026.462,286.488 C1031.948,286.488 1036.396,290.993 1036.396,296.551 C1036.396,302.108 1031.948,306.614 1026.462,306.614 z" fill="url(#Gradient_13)"/>
        <path d="M1026.462,306.614 C1020.975,306.614 1016.527,302.108 1016.527,296.551 C1016.527,290.993 1020.975,286.488 1026.462,286.488 C1031.948,286.488 1036.396,290.993 1036.396,296.551 C1036.396,302.108 1031.948,306.614 1026.462,306.614 z" fill-opacity="0" stroke="#000000" stroke-width="1"/>
      </g>
      <g>
        <path d="M1069.53,345.58 C1064.043,345.58 1059.595,341.075 1059.595,335.517 C1059.595,329.959 1064.043,325.454 1069.53,325.454 C1075.016,325.454 1079.464,329.959 1079.464,335.517 C1079.464,341.075 1075.016,345.58 1069.53,345.58 z" fill="url(#Gradient_14)"/>
        <path d="M1069.53,345.58 C1064.043,345.58 1059.595,341.075 1059.595,335.517 C1059.595,329.959 1064.043,325.454 1069.53,325.454 C1075.016,325.454 1079.464,329.959 1079.464,335.517 C1079.464,341.075 1075.016,345.58 1069.53,345.58 z" fill-opacity="0" stroke="#000000" stroke-width="1"/>
      </g>
      <g>
        <path d="M965.113,316.866 C965.113,316.866 987.268,299.731 1012.041,299.437" fill-opacity="0" stroke="#000000" stroke-width="0.5"/>
        <path d="M1011.995,300.937 L1016.039,299.559 L1012.086,297.938 z" fill="#000000" fill-opacity="1" stroke="#000000" stroke-width="0.5" stroke-opacity="1"/>
      </g>
      <g>
        <path d="M936.956,341.032" fill="url(#Gradient_15)"/>
        <path d="M936.956,341.032" fill-opacity="0" stroke="#000000" stroke-width="1"/>
      </g>
      <g>
        <path d="M1036.396,296.551 C1036.396,296.551 1044.864,280.155 1050.388,286.488 C1055.564,292.422 1059.927,309.437 1040.618,303.339" fill-opacity="0" stroke="#000000" stroke-width="0.5"/>
        <path d="M1041.136,301.931 L1036.864,301.957 L1040.1,304.746 z" fill="#000000" fill-opacity="1" stroke="#000000" stroke-width="0.5" stroke-opacity="1"/>
      </g>
      <g>
        <path d="M1023.491,309.61 C1023.491,309.61 1023.023,321.328 1019.193,328.55" fill-opacity="0" stroke="#000000" stroke-width="0.5"/>
        <path d="M1017.986,327.659 L1016.816,331.767 L1020.399,329.441 z" fill="#000000" fill-opacity="1" stroke="#000000" stroke-width="0.5" stroke-opacity="1"/>
      </g>
      <g>
        <path d="M1033.51,304.638 C1039.112,306.351 1054.408,317.413 1061.257,326.004" fill-opacity="0" stroke="#000000" stroke-width="0.5"/>
        <path d="M1060.009,326.836 L1063.476,329.333 L1062.505,325.172 z" fill="#000000" fill-opacity="1" stroke="#000000" stroke-width="0.5" stroke-opacity="1"/>
      </g>
      <g>
        <path d="M1063.745,341.032 C1063.745,341.032 1046.218,350.63 1027.827,346.753" fill-opacity="0" stroke="#000000" stroke-width="0.5"/>
        <path d="M1028.219,345.305 L1023.966,345.709 L1027.436,348.201 z" fill="#000000" fill-opacity="1" stroke="#000000" stroke-width="0.5" stroke-opacity="1"/>
      </g>
      <g>
        <path d="M1003.621,342.222 C1003.621,342.222 987.68,324.219 969.567,324.898" fill-opacity="0" stroke="#000000" stroke-width="0.5"/>
        <path d="M969.381,323.41 L965.598,325.393 L969.753,326.387 z" fill="#000000" fill-opacity="1" stroke="#000000" stroke-width="0.5" stroke-opacity="1"/>
      </g>
    </g>
    <g>
      <g>
        <path d="M928.003,422.677 L1107.119,422.677 L1107.119,515.508 L928.003,515.508 z" fill="url(#Gradient_16)"/>
        <path d="M928.003,422.677 L1107.119,422.677 L1107.119,515.508 L928.003,515.508 z" fill-opacity="0" stroke="#000000" stroke-width="1"/>
      </g>
      <g>
        <path d="M955.178,476.521 C949.692,476.521 945.244,472.016 945.244,466.458 C945.244,460.901 949.692,456.395 955.178,456.395 C960.665,456.395 965.113,460.901 965.113,466.458 C965.113,472.016 960.665,476.521 955.178,476.521 z" fill="url(#Gradient_17)"/>
        <path d="M955.178,476.521 C949.692,476.521 945.244,472.016 945.244,466.458 C945.244,460.901 949.692,456.395 955.178,456.395 C960.665,456.395 965.113,460.901 965.113,466.458 C965.113,472.016 960.665,476.521 955.178,476.521 z" fill-opacity="0" stroke="#000000" stroke-width="1"/>
      </g>
      <g>
        <path d="M1013.556,499.071 C1008.069,499.071 1003.621,494.565 1003.621,489.008 C1003.621,483.45 1008.069,478.945 1013.556,478.945 C1019.043,478.945 1023.491,483.45 1023.491,489.008 C1023.491,494.565 1019.043,499.071 1013.556,499.071 z" fill="#FF331E"/>
        <path d="M1013.556,499.071 C1008.069,499.071 1003.621,494.565 1003.621,489.008 C1003.621,483.45 1008.069,478.945 1013.556,478.945 C1019.043,478.945 1023.491,483.45 1023.491,489.008 C1023.491,494.565 1019.043,499.071 1013.556,499.071 z" fill-opacity="0" stroke="#000000" stroke-width="1"/>
      </g>
      <g>
        <path d="M1026.462,453.399 C1020.975,453.399 1016.527,448.894 1016.527,443.336 C1016.527,437.778 1020.975,433.273 1026.462,433.273 C1031.948,433.273 1036.396,437.778 1036.396,443.336 C1036.396,448.894 1031.948,453.399 1026.462,453.399 z" fill="url(#Gradient_18)"/>
        <path d="M1026.462,453.399 C1020.975,453.399 1016.527,448.894 1016.527,443.336 C1016.527,437.778 1020.975,433.273 1026.462,433.273 C1031.948,433.273 1036.396,437.778 1036.396,443.336 C1036.396,448.894 1031.948,453.399 1026.462,453.399 z" fill-opacity="0" stroke="#000000" stroke-width="1"/>
      </g>
      <g>
        <path d="M1069.53,492.365 C1064.043,492.365 1059.595,487.86 1059.595,482.302 C1059.595,476.745 1064.043,472.239 1069.53,472.239 C1075.016,472.239 1079.464,476.745 1079.464,482.302 C1079.464,487.86 1075.016,492.365 1069.53,492.365 z" fill="url(#Gradient_19)"/>
        <path d="M1069.53,492.365 C1064.043,492.365 1059.595,487.86 1059.595,482.302 C1059.595,476.745 1064.043,472.239 1069.53,472.239 C1075.016,472.239 1079.464,476.745 1079.464,482.302 C1079.464,487.86 1075.016,492.365 1069.53,492.365 z" fill-opacity="0" stroke="#000000" stroke-width="1"/>
      </g>
      <g>
        <path d="M965.113,463.651 C965.113,463.651 987.268,446.516 1012.041,446.223" fill-opacity="0" stroke="#000000" stroke-width="0.5"/>
        <path d="M1011.995,447.722 L1016.039,446.344 L1012.086,444.723 z" fill="#000000" fill-opacity="1" stroke="#000000" stroke-width="0.5" stroke-opacity="1"/>
      </g>
      <g>
        <path d="M936.956,487.817" fill="url(#Gradient_20)"/>
        <path d="M936.956,487.817" fill-opacity="0" stroke="#000000" stroke-width="1"/>
      </g>
      <g>
        <path d="M1036.396,443.336 C1036.396,443.336 1044.864,426.94 1050.388,433.273 C1055.564,439.207 1059.927,456.223 1040.618,450.124" fill-opacity="0" stroke="#000000" stroke-width="0.5"/>
        <path d="M1041.136,448.716 L1036.864,448.743 L1040.1,451.532 z" fill="#000000" fill-opacity="1" stroke="#000000" stroke-width="0.5" stroke-opacity="1"/>
      </g>
      <g>
        <path d="M1023.491,456.395 C1023.491,456.395 1023.023,468.113 1019.193,475.335" fill-opacity="0" stroke="#000000" stroke-width="0.5"/>
        <path d="M1017.986,474.444 L1016.816,478.553 L1020.399,476.226 z" fill="#000000" fill-opacity="1" stroke="#000000" stroke-width="0.5" stroke-opacity="1"/>
      </g>
      <g>
        <path d="M1033.51,451.424 C1039.112,453.137 1054.408,464.198 1061.257,472.79" fill-opacity="0" stroke="#000000" stroke-width="0.5"/>
        <path d="M1060.009,473.622 L1063.476,476.118 L1062.505,471.958 z" fill="#000000" fill-opacity="1" stroke="#000000" stroke-width="0.5" stroke-opacity="1"/>
      </g>
      <g>
        <path d="M1063.745,487.817 C1063.745,487.817 1046.218,497.415 1027.827,493.538" fill-opacity="0" stroke="#000000" stroke-width="0.5"/>
        <path d="M1028.219,492.09 L1023.966,492.494 L1027.436,494.986 z" fill="#000000" fill-opacity="1" stroke="#000000" stroke-width="0.5" stroke-opacity="1"/>
      </g>
      <g>
        <path d="M1003.621,489.008 C1003.621,489.008 987.68,471.004 969.567,471.683" fill-opacity="0" stroke="#000000" stroke-width="0.5"/>
        <path d="M969.381,470.195 L965.598,472.179 L969.753,473.172 z" fill="#000000" fill-opacity="1" stroke="#000000" stroke-width="0.5" stroke-opacity="1"/>
      </g>
    </g>
    <g>
      <path d="M928.003,468.501 L825.875,368.722" fill="url(#Gradient_21)"/>
      <g>
        <path d="M928.003,468.501 L832.313,375.012" fill-opacity="0" stroke="#000000" stroke-width="1" stroke-dasharray="3,2"/>
        <path d="M834.409,372.866 L826.591,369.421 L830.216,377.158 z" fill="#000000" fill-opacity="1" stroke="#000000" stroke-width="1" stroke-opacity="1"/>
      </g>
    </g>
    <g>
      <path d="M919.851,315.686 L825.875,317.751" fill="url(#Gradient_22)"/>
      <g>
        <path d="M919.851,315.686 L834.873,317.553" fill-opacity="0" stroke="#000000" stroke-width="1" stroke-dasharray="3,2"/>
        <path d="M834.807,314.554 L826.875,317.729 L834.939,320.552 z" fill="#000000" fill-opacity="1" stroke="#000000" stroke-width="1" stroke-opacity="1"/>
      </g>
    </g>
    <g>
      <path d="M905.294,163.93 L825.875,275.892" fill="url(#Gradient_23)"/>
      <g>
        <path d="M905.294,163.93 L831.083,268.551" fill-opacity="0" stroke="#000000" stroke-width="1" stroke-dasharray="3,2"/>
        <path d="M828.636,266.815 L826.454,275.076 L833.529,270.287 z" fill="#000000" fill-opacity="1" stroke="#000000" stroke-width="1" stroke-opacity="1"/>
      </g>
    </g>
    <text transform="matrix(1, 0, 0, 1, 711.862, 408.337)">
      <tspan x="-56.709" y="-3.12" font-family="Monaco" font-size="21" fill="#000000">consensus</tspan>
    </text>
    <g>
      <path d="M604.685,315.686 L562.463,315.686" fill="url(#Gradient_24)"/>
      <g>
        <path d="M604.685,315.686 L571.463,315.686" fill-opacity="0" stroke="#000000" stroke-width="1"/>
        <path d="M571.463,312.686 L563.463,315.686 L571.463,318.686 z" fill="#000000" fill-opacity="1" stroke="#000000" stroke-width="1" stroke-opacity="1"/>
      </g>
    </g>
    <text transform="matrix(1, 0, 0, 1, 1014.052, 90.12)">
      <tspan x="-50.408" y="-3.12" font-family="Monaco" font-size="21" fill="#000000">replicas</tspan>
    </text>
  </g>
  <defs>
    <linearGradient id="Gradient_1" gradientUnits="userSpaceOnUse" x1="928.003" y1="170.591" x2="1107.119" y2="170.591">
      <stop offset="0" stop-color="#FFFFFF"/>
      <stop offset="1" stop-color="#F0F66E"/>
    </linearGradient>
    <linearGradient id="Gradient_2" gradientUnits="userSpaceOnUse" x1="955.178" y1="157.894" x2="955.178" y2="178.02">
      <stop offset="0" stop-color="#FFFFFF"/>
      <stop offset="1" stop-color="#D4D4D4"/>
    </linearGradient>
    <linearGradient id="Gradient_3" gradientUnits="userSpaceOnUse" x1="1026.462" y1="134.772" x2="1026.462" y2="154.898">
      <stop offset="0" stop-color="#FFFFFF"/>
      <stop offset="1" stop-color="#D4D4D4"/>
    </linearGradient>
    <linearGradient id="Gradient_4" gradientUnits="userSpaceOnUse" x1="1069.53" y1="173.738" x2="1069.53" y2="193.864">
      <stop offset="0" stop-color="#FFFFFF"/>
      <stop offset="1" stop-color="#D4D4D4"/>
    </linearGradient>
    <linearGradient id="Gradient_5" gradientUnits="userSpaceOnUse" x1="936.956" y1="189.316" x2="936.956" y2="189.316">
      <stop offset="0" stop-color="#FFFFFF"/>
      <stop offset="1" stop-color="#D4D4D4"/>
    </linearGradient>
    <linearGradient id="Gradient_6" gradientUnits="userSpaceOnUse" x1="631.475" y1="303.415" x2="631.475" y2="333.002">
      <stop offset="0" stop-color="#FFFFFF"/>
      <stop offset="1" stop-color="#D4D4D4"/>
    </linearGradient>
    <linearGradient id="Gradient_7" gradientUnits="userSpaceOnUse" x1="736.27" y1="269.422" x2="736.27" y2="299.01">
      <stop offset="0" stop-color="#FFFFFF"/>
      <stop offset="1" stop-color="#D4D4D4"/>
    </linearGradient>
    <linearGradient id="Gradient_8" gradientUnits="userSpaceOnUse" x1="799.585" y1="326.707" x2="799.585" y2="356.295">
      <stop offset="0" stop-color="#FFFFFF"/>
      <stop offset="1" stop-color="#D4D4D4"/>
    </linearGradient>
    <linearGradient id="Gradient_9" gradientUnits="userSpaceOnUse" x1="604.685" y1="349.608" x2="604.685" y2="349.608">
      <stop offset="0" stop-color="#FFFFFF"/>
      <stop offset="1" stop-color="#D4D4D4"/>
    </linearGradient>
    <radialGradient id="Gradient_10" gradientUnits="userSpaceOnUse" cx="452.717" cy="326.02" r="101.392">
      <stop offset="0" stop-color="#FFFFFF"/>
      <stop offset="1" stop-color="#B6FEFF"/>
    </radialGradient>
    <linearGradient id="Gradient_11" gradientUnits="userSpaceOnUse" x1="928.003" y1="322.307" x2="1107.119" y2="322.307">
      <stop offset="0" stop-color="#FFFFFF"/>
      <stop offset="1" stop-color="#F0F66E"/>
    </linearGradient>
    <linearGradient id="Gradient_12" gradientUnits="userSpaceOnUse" x1="955.178" y1="309.61" x2="955.178" y2="329.736">
      <stop offset="0" stop-color="#FFFFFF"/>
      <stop offset="1" stop-color="#D4D4D4"/>
    </linearGradient>
    <linearGradient id="Gradient_13" gradientUnits="userSpaceOnUse" x1="1026.462" y1="286.488" x2="1026.462" y2="306.614">
      <stop offset="0" stop-color="#FFFFFF"/>
      <stop offset="1" stop-color="#D4D4D4"/>
    </linearGradient>
    <linearGradient id="Gradient_14" gradientUnits="userSpaceOnUse" x1="1069.53" y1="325.454" x2="1069.53" y2="345.58">
      <stop offset="0" stop-color="#FFFFFF"/>
      <stop offset="1" stop-color="#D4D4D4"/>
    </linearGradient>
    <linearGradient id="Gradient_15" gradientUnits="userSpaceOnUse" x1="936.956" y1="341.032" x2="936.956" y2="341.032">
      <stop offset="0" stop-color="#FFFFFF"/>
      <stop offset="1" stop-color="#D4D4D4"/>
    </linearGradient>
    <linearGradient id="Gradient_16" gradientUnits="userSpaceOnUse" x1="928.003" y1="469.092" x2="1107.119" y2="469.092">
      <stop offset="0" stop-color="#FFFFFF"/>
      <stop offset="1" stop-color="#F0F66E"/>
    </linearGradient>
    <linearGradient id="Gradient_17" gradientUnits="userSpaceOnUse" x1="955.178" y1="456.395" x2="955.178" y2="476.521">
      <stop offset="0" stop-color="#FFFFFF"/>
      <stop offset="1" stop-color="#D4D4D4"/>
    </linearGradient>
    <linearGradient id="Gradient_18" gradientUnits="userSpaceOnUse" x1="1026.462" y1="433.273" x2="1026.462" y2="453.399">
      <stop offset="0" stop-color="#FFFFFF"/>
      <stop offset="1" stop-color="#D4D4D4"/>
    </linearGradient>
    <linearGradient id="Gradient_19" gradientUnits="userSpaceOnUse" x1="1069.53" y1="472.239" x2="1069.53" y2="492.365">
      <stop offset="0" stop-color="#FFFFFF"/>
      <stop offset="1" stop-color="#D4D4D4"/>
    </linearGradient>
    <linearGradient id="Gradient_20" gradientUnits="userSpaceOnUse" x1="936.956" y1="487.817" x2="936.956" y2="487.817">
      <stop offset="0" stop-color="#FFFFFF"/>
      <stop offset="1" stop-color="#D4D4D4"/>
    </linearGradient>
    <linearGradient id="Gradient_21" gradientUnits="userSpaceOnUse" x1="876.939" y1="368.722" x2="876.939" y2="468.501">
      <stop offset="0" stop-color="#FFFFFF"/>
      <stop offset="1" stop-color="#D4D4D4"/>
    </linearGradient>
    <linearGradient id="Gradient_22" gradientUnits="userSpaceOnUse" x1="872.863" y1="315.686" x2="872.863" y2="317.751">
      <stop offset="0" stop-color="#FFFFFF"/>
      <stop offset="1" stop-color="#D4D4D4"/>
    </linearGradient>
    <linearGradient id="Gradient_23" gradientUnits="userSpaceOnUse" x1="865.585" y1="163.93" x2="865.585" y2="275.892">
      <stop offset="0" stop-color="#FFFFFF"/>
      <stop offset="1" stop-color="#D4D4D4"/>
    </linearGradient>
    <radialGradient id="Gradient_24" gradientUnits="userSpaceOnUse" cx="583.574" cy="315.686" r="21.111">
      <stop offset="0" stop-color="#FFFFFF"/>
      <stop offset="1" stop-color="#B6FEFF"/>
    </radialGradient>
  </defs>
</svg>
